{
    "asset" : {
        "generator" : "Khronos glTF Blender I/O v3.4.50",
        "version" : "2.0"
    },
    "scene" : 0,
    "scenes" : [
        {
            "name" : "Scene",
            "nodes" : [
                0,
                1
            ]
        }
    ],
    "nodes" : [
        {
            "mesh" : 0,
            "name" : "Cylinder",
            "scale" : [
                0.8869946599006653,
                1.1595538854599,
                0.8869946599006653
            ]
        },
        {
            "mesh" : 1,
            "name" : "Cylinder.001",
            "scale" : [
                1,
                0.045325636863708496,
                1
            ],
            "translation" : [
                0,
                1.2076081037521362,
                0
            ]
        }
    ],
    "materials" : [
        {
            "doubleSided" : true,
            "name" : "Material.002",
            "pbrMetallicRoughness" : {
                "baseColorFactor" : [
                    0.011232959106564522,
                    0.042027510702610016,
                    0.002687728265300393,
                    1
                ],
                "metallicFactor" : 0,
                "roughnessFactor" : 0.5
            }
        }
    ],
    "meshes" : [
        {
            "name" : "Cylinder.001",
            "primitives" : [
                {
                    "attributes" : {
                        "POSITION" : 0,
                        "TEXCOORD_0" : 1,
                        "NORMAL" : 2
                    },
                    "indices" : 3,
                    "material" : 0
                }
            ]
        },
        {
            "name" : "Cylinder",
            "primitives" : [
                {
                    "attributes" : {
                        "POSITION" : 4,
                        "TEXCOORD_0" : 5,
                        "NORMAL" : 6
                    },
                    "indices" : 7,
                    "material" : 0
                }
            ]
        }
    ],
    "accessors" : [
        {
            "bufferView" : 0,
            "componentType" : 5126,
            "count" : 672,
            "max" : [
                1,
                1.0422254800796509,
                1.0131635665893555
            ],
            "min" : [
                -0.9978268146514893,
                -1,
                -1.0607812404632568
            ],
            "type" : "VEC3"
        },
        {
            "bufferView" : 1,
            "componentType" : 5126,
            "count" : 672,
            "type" : "VEC2"
        },
        {
            "bufferView" : 2,
            "componentType" : 5126,
            "count" : 672,
            "type" : "VEC3"
        },
        {
            "bufferView" : 3,
            "componentType" : 5123,
            "count" : 1044,
            "type" : "SCALAR"
        },
        {
            "bufferView" : 4,
            "componentType" : 5126,
            "count" : 428,
            "max" : [
                1,
                5.76068639755249,
                1
            ],
            "min" : [
                -1,
                -2.4756531715393066,
                -1
            ],
            "type" : "VEC3"
        },
        {
            "bufferView" : 5,
            "componentType" : 5126,
            "count" : 428,
            "type" : "VEC2"
        },
        {
            "bufferView" : 6,
            "componentType" : 5126,
            "count" : 428,
            "type" : "VEC3"
        },
        {
            "bufferView" : 7,
            "componentType" : 5123,
            "count" : 840,
            "type" : "SCALAR"
        }
    ],
    "bufferViews" : [
        {
            "buffer" : 0,
            "byteLength" : 8064,
            "byteOffset" : 0,
            "target" : 34962
        },
        {
            "buffer" : 0,
            "byteLength" : 5376,
            "byteOffset" : 8064,
            "target" : 34962
        },
        {
            "buffer" : 0,
            "byteLength" : 8064,
            "byteOffset" : 13440,
            "target" : 34962
        },
        {
            "buffer" : 0,
            "byteLength" : 2088,
            "byteOffset" : 21504,
            "target" : 34963
        },
        {
            "buffer" : 0,
            "byteLength" : 5136,
            "byteOffset" : 23592,
            "target" : 34962
        },
        {
            "buffer" : 0,
            "byteLength" : 3424,
            "byteOffset" : 28728,
            "target" : 34962
        },
        {
            "buffer" : 0,
            "byteLength" : 5136,
            "byteOffset" : 32152,
            "target" : 34962
        },
        {
            "buffer" : 0,
            "byteLength" : 1680,
            "byteOffset" : 37288,
            "target" : 34963
        }
    ],
    "buffers" : [
        {
            "byteLength" : 38968,
            "uri" : "data:application/octet-stream;base64,"
        }
    ]
}
