{
    "asset" : {
        "generator" : "Khronos glTF Blender I/O v1.6.16",
        "version" : "2.0"
    },
    "scene" : 0,
    "scenes" : [
        {
            "name" : "Scene",
            "nodes" : [
                0
            ]
        }
    ],
    "nodes" : [
        {
            "mesh" : 0,
            "name" : "Cube.009"
        }
    ],
    "materials" : [
        {
            "doubleSided" : true,
            "name" : "Material",
            "pbrMetallicRoughness" : {
                "baseColorTexture" : {
                    "index" : 0
                },
                "metallicFactor" : 0,
                "roughnessFactor" : 0.4000000059604645
            }
        }
    ],
    "meshes" : [
        {
            "name" : "Cube.009",
            "primitives" : [
                {
                    "attributes" : {
                        "POSITION" : 0,
                        "NORMAL" : 1,
                        "TEXCOORD_0" : 2
                    },
                    "indices" : 3,
                    "material" : 0
                },
                {
                    "attributes" : {
                        "POSITION" : 4,
                        "NORMAL" : 5,
                        "TEXCOORD_0" : 6
                    },
                    "indices" : 7,
                    "material" : 0
                }
            ]
        }
    ],
    "textures" : [
        {
            "sampler" : 0,
            "source" : 0
        }
    ],
    "images" : [
        {
            "bufferView" : 4,
            "mimeType" : "image/png",
            "name" : "CarUV"
        }
    ],
    "accessors" : [
        {
            "bufferView" : 0,
            "componentType" : 5126,
            "count" : 14127,
            "max" : [
                1.9768425226211548,
                1.9950363636016846,
                6.766526699066162
            ],
            "min" : [
                -1.9768425226211548,
                -1.0888526439666748,
                -3.88505482673645
            ],
            "type" : "VEC3"
        },
        {
            "bufferView" : 1,
            "componentType" : 5126,
            "count" : 14127,
            "type" : "VEC3"
        },
        {
            "bufferView" : 2,
            "componentType" : 5126,
            "count" : 14127,
            "type" : "VEC2"
        },
        {
            "bufferView" : 3,
            "componentType" : 5123,
            "count" : 48165,
            "type" : "SCALAR"
        },
        {
            "bufferView" : 5,
            "componentType" : 5126,
            "count" : 10653,
            "max" : [
                1.9368466138839722,
                -0.25734448432922363,
                5.836002826690674
            ],
            "min" : [
                -1.9721208810806274,
                -1.6118440628051758,
                -3.021115303039551
            ],
            "type" : "VEC3"
        },
        {
            "bufferView" : 6,
            "componentType" : 5126,
            "count" : 10653,
            "type" : "VEC3"
        },
        {
            "bufferView" : 7,
            "componentType" : 5126,
            "count" : 10653,
            "type" : "VEC2"
        },
        {
            "bufferView" : 8,
            "componentType" : 5123,
            "count" : 20640,
            "type" : "SCALAR"
        }
    ],
    "bufferViews" : [
        {
            "buffer" : 0,
            "byteLength" : 169524,
            "byteOffset" : 0
        },
        {
            "buffer" : 0,
            "byteLength" : 169524,
            "byteOffset" : 169524
        },
        {
            "buffer" : 0,
            "byteLength" : 113016,
            "byteOffset" : 339048
        },
        {
            "buffer" : 0,
            "byteLength" : 96330,
            "byteOffset" : 452064
        },
        {
            "buffer" : 0,
            "byteLength" : 159327,
            "byteOffset" : 548396
        },
        {
            "buffer" : 0,
            "byteLength" : 127836,
            "byteOffset" : 707724
        },
        {
            "buffer" : 0,
            "byteLength" : 127836,
            "byteOffset" : 835560
        },
        {
            "buffer" : 0,
            "byteLength" : 85224,
            "byteOffset" : 963396
        },
        {
            "buffer" : 0,
            "byteLength" : 41280,
            "byteOffset" : 1048620
        }
    ],
    "samplers" : [
        {
            "magFilter" : 9729,
            "minFilter" : 9987
        }
    ],
    "buffers" : [
        {
            "byteLength" : 1089900,
            "uri" : "data:application/octet-stream;base64,"
        }
    ]
}
