{
    "asset" : {
        "generator" : "Khronos glTF Blender I/O v3.4.50",
        "version" : "2.0"
    },
    "scene" : 0,
    "scenes" : [
        {
            "name" : "Scene",
            "nodes" : [
                0
            ]
        }
    ],
    "nodes" : [
        {
            "mesh" : 0,
            "name" : "B2",
            "translation" : [
                -4.018954753875732,
                1,
                0
            ]
        }
    ],
    "materials" : [
        {
            "doubleSided" : true,
            "name" : "Material.001",
            "pbrMetallicRoughness" : {
                "baseColorFactor" : [
                    0.5595998167991638,
                    0.011904372833669186,
                    0,
                    1
                ],
                "metallicFactor" : 0,
                "roughnessFactor" : 0.5
            }
        },
        {
            "doubleSided" : true,
            "name" : "Material.002",
            "pbrMetallicRoughness" : {
                "baseColorFactor" : [
                    0.018848532810807228,
                    0.018848532810807228,
                    0.018848532810807228,
                    1
                ],
                "metallicFactor" : 0,
                "roughnessFactor" : 0.5
            }
        },
        {
            "doubleSided" : true,
            "name" : "Material.003",
            "pbrMetallicRoughness" : {
                "metallicFactor" : 0,
                "roughnessFactor" : 0.5
            }
        }
    ],
    "meshes" : [
        {
            "name" : "Cube.001",
            "primitives" : [
                {
                    "attributes" : {
                        "POSITION" : 0,
                        "TEXCOORD_0" : 1,
                        "NORMAL" : 2
                    },
                    "indices" : 3,
                    "material" : 0
                },
                {
                    "attributes" : {
                        "POSITION" : 4,
                        "TEXCOORD_0" : 5,
                        "NORMAL" : 6
                    },
                    "indices" : 7,
                    "material" : 1
                },
                {
                    "attributes" : {
                        "POSITION" : 8,
                        "TEXCOORD_0" : 9,
                        "NORMAL" : 10
                    },
                    "indices" : 11,
                    "material" : 2
                }
            ]
        }
    ],
    "accessors" : [
        {
            "bufferView" : 0,
            "componentType" : 5126,
            "count" : 228,
            "max" : [
                3,
                3,
                1.0809473991394043
            ],
            "min" : [
                -1,
                -1,
                -1
            ],
            "type" : "VEC3"
        },
        {
            "bufferView" : 1,
            "componentType" : 5126,
            "count" : 228,
            "type" : "VEC2"
        },
        {
            "bufferView" : 2,
            "componentType" : 5126,
            "count" : 228,
            "type" : "VEC3"
        },
        {
            "bufferView" : 3,
            "componentType" : 5123,
            "count" : 528,
            "type" : "SCALAR"
        },
        {
            "bufferView" : 4,
            "componentType" : 5126,
            "count" : 555,
            "max" : [
                2.642920970916748,
                2.642920970916748,
                1.0809473991394043
            ],
            "min" : [
                -0.6429208517074585,
                -0.6429208517074585,
                1
            ],
            "type" : "VEC3"
        },
        {
            "bufferView" : 5,
            "componentType" : 5126,
            "count" : 555,
            "type" : "VEC2"
        },
        {
            "bufferView" : 6,
            "componentType" : 5126,
            "count" : 555,
            "type" : "VEC3"
        },
        {
            "bufferView" : 7,
            "componentType" : 5123,
            "count" : 984,
            "type" : "SCALAR"
        },
        {
            "bufferView" : 8,
            "componentType" : 5126,
            "count" : 64,
            "max" : [
                2.5571343898773193,
                2.5571343898773193,
                1
            ],
            "min" : [
                -0.5571344494819641,
                -0.5571344494819641,
                1
            ],
            "type" : "VEC3"
        },
        {
            "bufferView" : 9,
            "componentType" : 5126,
            "count" : 64,
            "type" : "VEC2"
        },
        {
            "bufferView" : 10,
            "componentType" : 5126,
            "count" : 64,
            "type" : "VEC3"
        },
        {
            "bufferView" : 11,
            "componentType" : 5123,
            "count" : 96,
            "type" : "SCALAR"
        }
    ],
    "bufferViews" : [
        {
            "buffer" : 0,
            "byteLength" : 2736,
            "byteOffset" : 0,
            "target" : 34962
        },
        {
            "buffer" : 0,
            "byteLength" : 1824,
            "byteOffset" : 2736,
            "target" : 34962
        },
        {
            "buffer" : 0,
            "byteLength" : 2736,
            "byteOffset" : 4560,
            "target" : 34962
        },
        {
            "buffer" : 0,
            "byteLength" : 1056,
            "byteOffset" : 7296,
            "target" : 34963
        },
        {
            "buffer" : 0,
            "byteLength" : 6660,
            "byteOffset" : 8352,
            "target" : 34962
        },
        {
            "buffer" : 0,
            "byteLength" : 4440,
            "byteOffset" : 15012,
            "target" : 34962
        },
        {
            "buffer" : 0,
            "byteLength" : 6660,
            "byteOffset" : 19452,
            "target" : 34962
        },
        {
            "buffer" : 0,
            "byteLength" : 1968,
            "byteOffset" : 26112,
            "target" : 34963
        },
        {
            "buffer" : 0,
            "byteLength" : 768,
            "byteOffset" : 28080,
            "target" : 34962
        },
        {
            "buffer" : 0,
            "byteLength" : 512,
            "byteOffset" : 28848,
            "target" : 34962
        },
        {
            "buffer" : 0,
            "byteLength" : 768,
            "byteOffset" : 29360,
            "target" : 34962
        },
        {
            "buffer" : 0,
            "byteLength" : 192,
            "byteOffset" : 30128,
            "target" : 34963
        }
    ],
    "buffers" : [
        {
            "byteLength" : 30320,
            "uri" : "data:application/octet-stream;base64,"
        }
    ]
}
